<svg xmlns="http://www.w3.org/2000/svg" viewBox="0 0 498.04 118.6"><defs><style>.cls-1{isolation:isolate;}.cls-2{fill:#94b584;}</style></defs><g id="レイヤー_2" data-name="レイヤー 2"><g id="アートボード_1" data-name="アートボード 1" class="cls-1"><g id="B"><path class="cls-2" d="M79.5,48.6S93.75,37.35,93.75,25.2c0-10-15.75-21-25.2-23.4C64.05.6,54.9,0,48.3,0,41,0,31.05.9,27.3,2,15.9,5.25,0,23.7,0,30.9c0,3.75,10.65,16.65,13.65,16.65,2.7,0,10.5-5.1,10.5-7.2s-4-11.7-4-15.15c0-2.55,3.6-6.15,7.8-7.65C31.65,16.2,40.2,15,48.45,15a81.35,81.35,0,0,1,17,2.25c2.7.75,6.15,5.4,6.15,7.05,0,8.25-7.95,18.9-13.8,20.85-2.55.9-3.45,1.05-8.7,2.1,1.8-6.45,2.1-8.25,3-10.8,1.2-3.6,3.9-7.65,3.9-8.85,0-2.4-12.9-10-16.5-10-1.65,0-7.65,8.85-9,14L24.9,52.05,16.35,53.7A2.26,2.26,0,0,0,14.55,56c0,2.25,4.35,11,6.6,11-2.85,10.35-5.1,18-5.7,19.95-1.5,4.5-8.4,9.75-8.4,11,0,2.4,9.6,8.7,14,8.7,3,0,5.1-2.1,9.45-5.7,4.65,2.4,13.2,5.7,21.9,5.7,16.05,0,41.4-19.65,41.4-37.2C93.75,60.15,79.5,48.6,79.5,48.6ZM48.9,92.85a18.66,18.66,0,0,1-11.25-3.6c1.5-4.8,3.9-14.7,6.9-26.25,10.2-2.1,14.85-3.3,16.5-3.3,4,0,9.3,5.1,9.3,12.15C70.35,80.7,57.45,92.85,48.9,92.85Z"/></g><g id="r"><path class="cls-2" d="M162.3,66.67c-2,0-3.3,2.7-3.3,2.7-7.35,13.5-13.95,22.5-19.35,22.5-.45,0-1.2-.3-1.2-2,0-8.55,8.4-34.65,8.4-39.6,0-6.3-19-9-19-11.4,0-3.75,2-6.45,2-9.6,0-3.45-9.15-9.15-13.5-9.15-5.7,0-11.55,11.7-11.55,16.8S112.05,47,112.05,47s-5.4,13.2-10.5,22.65c0,0-2,3.15-2,5,0,2.1,3.45,4.2,5,4.2,2.55,0,4.2-3.75,4.2-3.75,7.2-13.5,11.55-23.7,11.55-23.7s3.45.75,3.45,1.8c0,7.5-7.65,27.9-7.65,39,0,5.85,13.65,12.6,21.45,12.6,10.8,0,19.65-13.65,27.9-28.65,0,0,2-3.45,2-5.25S164.25,66.67,162.3,66.67Z"/></g><g id="o"><path class="cls-2" d="M236,66.57c-1.8,0-3.15,2.7-3.15,2.7s-7.05,13.8-16.05,13.8a10.74,10.74,0,0,1-3.9-.45c4.8-9.9,7.35-20.25,7.35-28.2,0-9.3-15.89-20.25-29.09-20.25-18.15,0-32.4,28.95-32.4,49.8,0,10.8,18.75,20.7,29.25,20.7,6.3,0,12.45-3.75,17.4-10.35,2.09.15,4.19.15,6,.15,17.55,0,27.9-18.45,27.9-18.45s2.1-3.45,2.1-5.25S238.09,66.57,236,66.57Zm-39.29,9.3c-4.5.6-10.2,8.1-10.2,11.1a3.55,3.55,0,0,0,1.65,3.15c-1.2,1.2-2.1,1.8-3.15,1.8a4.25,4.25,0,0,1-3.75-4.35c0-16.8,11.85-39.75,16.95-39.75,3,0,4.65,2.4,4.65,3.45C202.85,58.47,200.45,67.32,196.7,75.87Z"/></g><g id="c"><path class="cls-2" d="M289.7,67.4c-1.8,0-3.3,2.7-3.3,2.7-10,16.05-23.1,22.2-31,22.2-3.45,0-8.4-3.3-8.4-7.8,0-16.5,8.55-36.75,14.4-36.75.75,0,1.35.6,1.35.9,0,1.65-4.05,7.2-4.05,10.8,0,2.55,7.65,7.35,11.4,7.35,3,0,8.55-12.3,8.55-18.3S266.75,35,256.85,35c-18.15,0-33,28.8-33,49.8,0,10.65,15,20.7,28.65,20.7,14.55,0,29.4-11.4,40.35-28.65,0,0,2.1-3.45,2.1-5.25S291.8,67.4,289.7,67.4Z"/></g><g id="c-2" data-name="c"><path class="cls-2" d="M344.7,67.4c-1.8,0-3.3,2.7-3.3,2.7-10,16.05-23.1,22.2-31,22.2-3.45,0-8.4-3.3-8.4-7.8,0-16.5,8.55-36.75,14.4-36.75.75,0,1.35.6,1.35.9,0,1.65-4.05,7.2-4.05,10.8,0,2.55,7.65,7.35,11.4,7.35,3,0,8.55-12.3,8.55-18.3S321.75,35,311.85,35c-18.15,0-33,28.8-33,49.8,0,10.65,15,20.7,28.65,20.7,14.55,0,29.4-11.4,40.35-28.65,0,0,2.1-3.45,2.1-5.25S346.8,67.4,344.7,67.4Z"/></g><g id="o-2" data-name="o"><path class="cls-2" d="M415.83,67.55c-1.8,0-3.15,2.7-3.15,2.7s-7.05,13.8-16.05,13.8a10.74,10.74,0,0,1-3.9-.45c4.8-9.9,7.35-20.25,7.35-28.2,0-9.3-15.9-20.25-29.1-20.25-18.15,0-32.4,28.95-32.4,49.8,0,10.8,18.75,20.7,29.25,20.7,6.3,0,12.45-3.75,17.4-10.35,2.1.15,4.2.15,6,.15,17.55,0,27.9-18.45,27.9-18.45s2.1-3.45,2.1-5.25S417.93,67.55,415.83,67.55Zm-39.3,9.3c-4.5.6-10.2,8.1-10.2,11.1A3.55,3.55,0,0,0,368,91.1c-1.2,1.2-2.1,1.8-3.15,1.8a4.25,4.25,0,0,1-3.75-4.35c0-16.8,11.85-39.75,16.95-39.75,3,0,4.65,2.4,4.65,3.45C382.68,59.45,380.28,68.3,376.53,76.85Z"/></g><g id="l"><path class="cls-2" d="M452.49,80.5c-1.95,0-3.3,2.7-3.3,2.7-7.35,13.5-14.25,22.5-19.8,22.5-.9,0-2.55-.9-2.55-1.65,0-7,17.55-66,19.05-70.8a16.28,16.28,0,0,0,.6-3.75c0-2.55-12-9.9-15.45-9.9a4.62,4.62,0,0,0-4.65,3.15c-4.8,14.7-21.9,74.4-21.9,82.5,0,6.75,15.45,13.35,23.25,13.35,10.8,0,19.8-13.65,27.9-28.65,0,0,1.95-3.45,1.95-5.25S454.44,80.5,452.49,80.5Z"/></g><g id="i"><path class="cls-2" d="M492.94,77.31c-1.95,0-3.15,2.7-3.15,2.7-7.65,13.5-15.45,22.8-19.8,22.8-.45,0-1.5-.75-1.5-1.35,0-10.5,12-43.2,12-46.65,0-2.85-12-9.9-15-9.9-3.3,0-5.4,1.05-6,3.15-2.55,9.3-13.2,47.25-13.2,54.3,0,6.75,13.35,13,21.75,13,10.8,0,19.8-13.65,27.9-28.65,0,0,2.1-3.45,2.1-5.25S494.89,77.31,492.94,77.31Zm-14.4-37.65c6,0,9.9-10.95,9.9-16.95,0-4.95-7.8-7.8-11.85-7.8-6.15,0-9.9,11-9.9,17C466.69,36.81,474.49,39.66,478.54,39.66Z"/></g></g></g></svg>