<svg xmlns="http://www.w3.org/2000/svg" viewBox="0 0 498.22 357.08"><path d="M428.79 114.15c-3.72-55.87-50.19-100.04-107-100.04-12.91 0-25.29 2.29-36.75 6.48 8.78 10.15 19.55 24.66 24.4 39.41l-20.65 6.79c-5-15.2-12.91-25.97-28.35-40.82C245.01 11.13 217.26 0 190.54 0c-52.4 0-96 37.58-105.37 87.26 12.73-1.81 27.89-2.26 42.13 1.66l-5.77 20.95c-12.72-3.51-28.9-2.02-38.18.1C35.79 120.85 0 163.52 0 214.53 0 273.77 48.02 321.8 107.27 321.8c18.23 0 35.38-4.56 50.41-12.58 19.23 28.85 52.04 47.86 89.31 47.86s71.38-19.79 90.43-49.61c15.76 9.1 34.03 14.33 53.53 14.33 59.24 0 107.27-48.02 107.27-107.27 0-45.92-28.86-85.08-69.43-100.38Z"/><path d="M318.77 271.29c-14.56-25.07-46.81-33.62-71.88-19.06l-10.92-18.79c35.43-20.59 81.01-8.5 101.59 26.93l-18.79 10.92Z"/></svg>